<?xml version="1.0" encoding="UTF-8" standalone="no"?>
<!-- Created with Inkscape (http://www.inkscape.org/) -->

<svg
   width="5517.0723mm"
   height="1291.626mm"
   viewBox="0 0 5517.0723 1291.626"
   version="1.1"
   id="svg5"
   xml:space="preserve"
   inkscape:version="1.2.2 (b0a8486541, 2022-12-01)"
   sodipodi:docname="test_serotine.svg.2025_10_03_14_37_29.0.svg"
   xmlns:inkscape="http://www.inkscape.org/namespaces/inkscape"
   xmlns:sodipodi="http://sodipodi.sourceforge.net/DTD/sodipodi-0.dtd"
   xmlns="http://www.w3.org/2000/svg"
   xmlns:svg="http://www.w3.org/2000/svg"><sodipodi:namedview
     id="namedview7"
     pagecolor="#ffffff"
     bordercolor="#000000"
     borderopacity="0.25"
     inkscape:showpageshadow="2"
     inkscape:pageopacity="0.0"
     inkscape:pagecheckerboard="0"
     inkscape:deskcolor="#d1d1d1"
     inkscape:document-units="mm"
     showgrid="false"
     inkscape:zoom="0.02"
     inkscape:cx="-91000"
     inkscape:cy="35300"
     inkscape:window-width="1295"
     inkscape:window-height="699"
     inkscape:window-x="71"
     inkscape:window-y="32"
     inkscape:window-maximized="1"
     inkscape:current-layer="layer9" /><defs
     id="defs2" /><g
     inkscape:groupmode="layer"
     id="layer4"
     inkscape:label="Test3"
     transform="translate(26450.963,-6032.1805)"><g
       inkscape:groupmode="layer"
       id="layer9"
       inkscape:label="Logo def"><path
         id="path1720"
         style="font-size:192px;font-family:Gilroy-Black;-inkscape-font-specification:Gilroy-Black;text-orientation:upright;white-space:pre;fill:#ffffff;fill-rule:evenodd;stroke:none;stroke-width:291.136;stroke-linecap:round;stroke-linejoin:round;paint-order:markers fill stroke"
         d="m -25920.182,6146.1358 c -60.274,0.229 -119.116,7.2082 -174.607,21.1812 -47.771,12.0286 -109.826,38.7478 -142.995,61.5678 -31.573,21.7226 -70.969,61.0553 -90.139,89.9945 -39.762,60.0255 -53.96,114.6758 -50.774,195.4392 1.592,40.3588 6.915,72.3408 17.848,100.7763 -22.873,-4.805 -46.877,-1.1621 -66.499,18.3208 -0.04,0.028 -0.06,0.059 -0.1,0.088 -12.921,9.9895 -20.074,21.209 -22.511,32.8047 -2.444,11.6285 -0.208,23.3063 4.341,34.3535 9.017,21.8935 27.089,41.9956 39.837,57.5412 9.662,19.3278 16.3,41.2993 26.402,61.2536 10.028,19.8091 23.891,37.7234 47.559,47.8927 5.279,5.0361 10.903,10.6586 14.619,16.6072 3.827,6.1279 5.654,12.188 3.917,19.0314 a 4.802,4.802 0 0 0 3.473,5.8338 4.802,4.802 0 0 0 5.836,-3.4727 c 2.498,-9.8421 -0.4,-18.9848 -5.082,-26.4805 -4.682,-7.496 -11.127,-13.7338 -16.621,-18.9586 a 4.8024802,4.8024802 0 0 0 -1.469,-0.9555 c -21.784,-9.0403 -34.027,-24.7994 -43.664,-43.8355 -9.636,-19.0364 -16.294,-41.2025 -26.588,-61.6603 a 4.8024802,4.8024802 0 0 0 -0.572,-0.8827 c -13.001,-15.8923 -30.633,-35.8247 -38.765,-55.5702 -4.067,-9.8729 -5.76,-19.5168 -3.825,-28.7228 1.936,-9.2064 7.448,-18.302 19.073,-27.2599 a 4.8024802,4.8024802 0 0 0 0.48,-0.4237 c 18.182,-18.3554 39.104,-20.8055 60.871,-15.5195 21.767,5.2861 43.869,18.8223 61.565,32.4394 39.927,32.8392 88.021,61.4223 114.476,103.1601 3.243,39.735 -29.062,72.8989 -55.742,101.9452 a 4.802,4.802 0 0 0 0.287,6.7851 4.802,4.802 0 0 0 6.785,-0.2868 c 26.717,-29.0866 62.659,-64.7072 58.182,-110.4651 a 4.8024802,4.8024802 0 0 0 -0.703,-2.0681 c -25.484,-40.9464 -68.785,-68.6537 -106.043,-97.6643 81.808,-2.9278 172.327,3.39 245.822,37.9279 19.381,15.8745 43.483,40.0058 68.355,56.6699 -8.911,-1.0597 -17.911,-2.0495 -26.835,-2.2913 -24.648,-0.6679 -49.268,4.9691 -65.28,30.2855 a 4.8024802,4.8024802 0 0 0 -0.703,1.9472 c -2.233,17.1564 -8.831,34.2364 -6.158,48.5624 1.336,7.163 5.983,13.6929 14.051,16.9157 8.067,3.2231 19.115,3.8604 35.023,2.0785 a 4.802,4.802 0 0 0 4.238,-5.3067 4.802,4.802 0 0 0 -5.306,-4.2385 c -15.117,1.6933 -24.864,0.7556 -30.393,-1.4531 -5.528,-2.2087 -7.279,-4.9665 -8.172,-9.7555 -1.745,-9.353 3.536,-26.2657 6.03,-44.2872 14.021,-21.5773 33.5,-25.7676 56.41,-25.1468 15.646,0.424 32.424,3.3218 48.835,4.764 0.924,0.4049 1.85,0.9608 2.772,1.3317 a 4.802,4.802 0 0 0 4.358,-0.7343 c 5.068,0.2797 10.075,0.3457 14.976,0.076 18.373,6.2818 26.539,17.0604 29.666,30.518 3.167,13.6326 0.54,30.3097 -4.719,46.1641 a 4.802,4.802 0 0 0 0.03,0.3886 c -13.139,-7.7008 -30.501,-9.2416 -45.822,1.0155 a 4.8024802,4.8024802 0 0 0 -0.32,0.2346 c -34.105,27.1622 -76.995,57.1536 -120.514,47.9159 a 4.802,4.802 0 0 0 -5.695,3.7011 4.802,4.802 0 0 0 3.701,5.6932 c 48.687,10.3349 93.825,-22.2095 128.233,-49.5975 15.964,-10.6429 34.014,-5.0686 44.128,6.2146 5.064,5.6488 7.913,12.5745 7.571,19.4551 -0.342,6.8806 -3.689,14.0324 -12.445,20.7326 a 4.8024802,4.8024802 0 0 0 -1.205,1.3534 c -23.941,40.118 -55.051,85.118 -102.683,91.7577 a 4.802,4.802 0 0 0 -4.091,5.4199 4.802,4.802 0 0 0 5.418,4.0922 c 34.384,-4.7929 60.083,-27.0282 80.566,-53.0939 a 4.802,4.802 0 0 0 0.508,-0.025 c 38.735,-18.4465 44.291,-21.2369 77.738,-46.9475 11.757,-3.4482 21.657,-2.5975 30.344,1.1503 8.859,3.8221 16.54,10.7734 22.895,19.668 12.709,17.7892 19.786,43.2506 20.658,63.3186 a 4.8024802,4.8024802 0 0 0 0.218,1.2382 c 2.807,8.8823 2.946,21.5428 0.222,29.7129 -1.363,4.0851 -3.358,6.8484 -5.286,8.0274 -1.928,1.1791 -4.039,1.5485 -8.197,-0.387 a 4.8024802,4.8024802 0 0 0 -6.379,6.3789 c 7.086,15.2215 9.675,36.4981 15.175,56.348 3.816,13.7702 9.44,27.105 19.43,36.9352 -8.229,-2.3869 -18.18,-6.5915 -27.461,-12.3124 -9.36,-5.7704 -18.009,-13.0726 -23.719,-21.3201 -5.709,-8.2478 -8.553,-17.2209 -6.908,-27.3457 a 4.8024802,4.8024802 0 0 0 0.05,-1.1038 c -0.437,-6.3013 -1.738,-11.3092 -4.176,-15.2342 -2.437,-3.9249 -6.19,-6.5632 -10.243,-7.582 -8.108,-2.0375 -16.698,1.0363 -25.581,5.1837 -8.883,4.1474 -18.109,9.7684 -26.509,14.5526 -8.367,4.7653 -16.117,8.601 -20.58,9.4315 -0.374,0.051 -96.351,13.0386 -170.053,-26.3555 1.741,-9.2807 1.203,-19.6359 -1.455,-28.5156 -1.027,-21.8266 -8.292,-48.2923 -22.407,-68.0486 -7.104,-9.9429 -16.022,-18.2076 -26.904,-22.9024 -10.882,-4.6948 -23.672,-5.6393 -37.635,-1.3653 a 4.8024802,4.8024802 0 0 0 -1.523,0.7849 c -33.672,25.9126 -73.381,43.704 -112.547,62.3539 -42.799,17.8346 -55.756,21.6685 -68.922,26.1792 -13.18,4.5159 -26.339,9.6554 -68.543,29.731 a 4.802,4.802 0 0 0 -2.273,6.3981 4.802,4.802 0 0 0 6.398,2.2738 c 42.081,-20.0173 54.602,-24.8868 67.532,-29.3166 12.929,-4.4298 26.522,-8.4871 69.622,-26.4511 a 4.8024802,4.8024802 0 0 0 0.22,-0.096 c 38.728,-18.4434 78.778,-36.3251 113.48,-62.8143 11.776,-3.4636 21.689,-2.612 30.387,1.1405 8.859,3.822 16.539,10.7736 22.894,19.6681 12.709,17.7892 19.787,43.25 20.658,63.3181 a 4.8024802,4.8024802 0 0 0 0.219,1.2382 c 2.807,8.8819 2.947,21.5428 0.223,29.7129 -1.362,4.085 -3.36,6.8483 -5.288,8.0274 -1.928,1.1791 -4.038,1.5488 -8.197,-0.3866 a 4.8024802,4.8024802 0 0 0 -6.379,6.379 c 7.086,15.2216 9.676,36.4975 15.176,56.3475 3.816,13.7698 9.439,27.1056 19.43,36.9357 -8.23,-2.3869 -18.181,-6.5918 -27.461,-12.3124 -9.361,-5.7704 -18.009,-13.0729 -23.719,-21.3207 -5.709,-8.2478 -8.554,-17.2209 -6.908,-27.3456 a 4.8024802,4.8024802 0 0 0 0.05,-1.1033 c -0.439,-6.3216 -1.762,-11.2764 -4.379,-15.0761 -2.618,-3.7997 -6.735,-6.0785 -10.922,-6.582 -8.374,-1.0071 -16.912,3.1023 -25.955,8.2636 -9.043,5.1608 -18.469,11.7813 -27.014,17.3028 -8.544,5.5215 -16.493,9.8146 -20.695,10.5781 a 4.8024802,4.8024802 0 0 0 -1.437,0.5075 c -38.864,21.147 -58.943,31.4403 -69.385,36.2929 -5.221,2.4263 -8.068,3.4816 -9.319,3.8225 -0.301,0.082 -0.437,0.1399 -0.499,0.1819 -0.03,-0.015 -0.02,-0.025 -0.1,-0.043 -0.365,-0.084 -1.455,-0.2808 -2.493,-0.1891 -1.037,0.092 -1.985,0.3575 -3.07,0.7555 -2.168,0.796 -5.084,2.2028 -10.332,4.9981 -10.495,5.5906 -30.121,16.7415 -68.41,39.0333 a 4.802,4.802 0 0 0 -1.734,6.5665 4.802,4.802 0 0 0 6.566,1.7322 c 0.06,-0.033 0.08,-0.044 0.134,-0.077 6.076,13.7981 64.714,36.5274 94.509,47.9273 1.418,0.6541 5.895,2.5955 16.176,6.9794 38.259,16.3142 158.807,55.2289 240.454,65.8255 v 0.03 c 39.082,5.0411 152.709,4.9698 194.687,-0.155 75.63,-9.2302 152.343,-34.1971 209.82,-68.2832 42.627,-25.2801 98.48,-80.2775 118.772,-116.9556 78.444,-141.7794 46.577,-318.3085 -73.818,-408.9198 -58.118,-43.7419 -124.736,-72.0492 -271.232,-115.2529 -95.839,-28.264 -128.506,-39.7931 -159.356,-56.2348 -38.932,-20.7508 -60.649,-51.2489 -60.727,-85.2821 -0.04,-15.9083 15.111,-42.6599 29.743,-52.5276 18.359,-12.3803 57.006,-21.8007 89.38,-21.7847 78.098,0.039 213.288,41.4875 329.156,100.9205 23.681,12.1473 43.417,21.7107 43.868,21.2597 0.445,-0.454 26.262,-54.284 57.368,-119.6212 l 56.56,-118.7948 -9.83,-7.4161 c -5.408,-4.0782 -30.236,-17.4871 -55.173,-29.7971 -126.121,-62.2556 -265.673,-94.427 -398.278,-93.924 z m 935.389,208.626 -107.522,194.8838 h 212.356 l 155.908,-194.8838 z m 2006.635,90.0498 -223.109,67.2016 v 120.9621 h -100.802 v 213.7007 h 100.802 v 200.2606 c 0,106.6262 26.881,180.5479 80.642,221.7648 54.657,40.3208 148.739,52.4171 282.246,36.2887 v -201.6042 c -50.177,2.6881 -86.017,0.4476 -107.522,-6.7205 -21.504,-7.1682 -32.257,-25.5366 -32.257,-55.1052 V 6846.676 h 139.779 v -213.7007 h -139.779 z m -3194.742,99.1542 c 18.541,2.6963 33.652,13.1483 47.427,26.9529 14.305,14.3357 26.925,32.0313 40.077,46.9863 13.036,18.7265 27.53,38.285 28.706,59.7209 -43.02,-16.0554 -89.972,-24.1282 -136.798,-27.3224 a 4.802,4.802 0 0 0 0.515,-5.9841 c -11.031,-15.7918 -11.346,-34.7648 -5.959,-53.4376 5.128,-17.7701 15.547,-34.7677 26.032,-46.916 z m 1213.644,70.1936 c -103.939,0 -189.509,34.0483 -256.71,102.1457 -67.201,68.0974 -100.802,152.7717 -100.802,254.0218 0,102.146 34.049,186.8203 102.146,254.0217 68.993,66.3054 160.387,99.458 274.182,99.458 126.338,0 222.66,-41.6653 288.966,-124.995 l -161.283,-112.8985 c -33.153,31.3606 -73.922,47.041 -122.307,47.041 -77.953,0 -128.13,-27.3286 -150.531,-81.9857 h 463.69 c 6.272,-25.9845 9.408,-53.7612 9.408,-83.3298 0,-101.2501 -32.705,-185.4757 -98.114,-252.677 -65.409,-67.2014 -148.291,-100.8022 -248.645,-100.8022 z m 1260.699,0 c -99.458,0 -184.132,34.4965 -254.022,103.4899 -69.889,68.0973 -104.834,151.8754 -104.834,251.3334 0,99.4581 34.945,183.6842 104.834,252.6776 69.89,68.0974 154.564,102.1463 254.022,102.1463 100.354,0 185.028,-34.0489 254.021,-102.1463 69.889,-68.9934 104.834,-153.2195 104.834,-252.6776 0,-99.458 -34.945,-183.2361 -104.834,-251.3334 -68.993,-68.9934 -153.667,-103.4899 -254.021,-103.4899 z m 1725.726,0 c -84.226,0 -146.5,28.6724 -186.82,86.0175 v -67.2016 h -223.109 v 672.0148 h 223.109 v -357.5115 c 0,-39.4248 9.408,-69.4418 28.224,-90.0503 19.713,-21.5044 47.042,-32.2564 81.986,-32.2564 30.465,0 54.658,8.9601 72.578,26.8805 18.816,17.9204 28.224,44.3528 28.224,79.2975 v 373.6402 h 223.109 v -401.8648 c 0,-93.1859 -23.297,-164.4197 -69.889,-213.7007 -45.697,-50.177 -104.835,-75.2652 -177.412,-75.2652 z m 692.182,0 c -103.939,0 -189.509,34.0483 -256.71,102.1457 -67.201,68.0974 -100.802,152.7717 -100.802,254.0218 0,102.146 34.049,186.8203 102.146,254.0217 68.993,66.3054 160.387,99.458 274.182,99.458 126.338,0 222.661,-41.6653 288.966,-124.995 l -161.283,-112.8985 c -33.153,31.3606 -73.922,47.041 -122.307,47.041 -77.953,0 -128.13,-27.3286 -150.531,-81.9857 h 463.69 c 6.272,-25.9845 9.408,-53.7612 9.408,-83.3298 0,-101.2501 -32.705,-185.4757 -98.114,-252.677 -65.409,-67.2014 -148.291,-100.8022 -248.645,-100.8022 z m -2811.709,5.3759 c -46.593,0 -88.705,12.0963 -126.338,36.2888 -37.633,24.1925 -62.722,58.2413 -75.266,102.1462 v -124.995 h -223.109 v 672.0148 h 223.109 v -278.214 c 0,-60.9293 20.608,-104.8344 61.825,-131.7149 42.113,-26.8805 88.706,-36.2888 139.779,-28.2247 z m 1357.469,13.44 v 672.0148 h 223.109 v -672.0148 z m -3202.171,141.2054 c -3.131,0.2055 -6.362,2.2187 -8.124,5.088 -2.014,3.2795 -3.023,7.4968 -3.527,13.332 a 4.802,4.802 0 0 0 4.371,5.1971 4.802,4.802 0 0 0 5.198,-4.3713 c 0.432,-5.0127 1.453,-8.0081 2.142,-9.1307 0.265,-0.4307 0.255,-0.4748 0.261,-0.5343 0.129,0.019 1.372,0.4972 2.772,1.835 1.412,1.3486 2.958,3.3733 4.225,5.5511 1.266,2.1778 2.264,4.5243 2.765,6.41 0.308,1.1556 0.219,1.3621 0.217,1.8985 -1.261,-0.3357 -3.44,-1.1645 -6.757,-3.3047 a 4.802,4.802 0 0 0 -6.639,1.4315 4.802,4.802 0 0 0 1.431,6.6388 c 4.671,3.013 8.279,4.7114 11.903,5.0876 1.812,0.1881 3.745,-0.019 5.48,-0.9529 1.735,-0.9344 3.022,-2.577 3.653,-4.1739 1.261,-3.194 0.781,-6.1393 0,-9.0915 -0.785,-2.9523 -2.1,-5.9398 -3.746,-8.7715 -1.647,-2.8317 -3.615,-5.4902 -5.895,-7.6683 -2.28,-2.1781 -4.885,-4.0678 -8.394,-4.4452 -0.439,-0.047 -0.884,-0.055 -1.332,-0.025 z m 980.492,28.1425 c 66.305,0 108.418,31.3607 126.338,94.0821 h -258.053 c 18.816,-62.7214 62.721,-94.0821 131.715,-94.0821 z m 3678.607,0 c 66.305,0 108.418,31.3607 126.338,94.0821 h -258.053 c 18.816,-62.7214 62.722,-94.0821 131.715,-94.0821 z m -4860.965,20.4158 c -4.87,0 -9.837,1.0704 -14.037,4.2793 -5.599,4.2785 -8.792,11.9548 -8.695,22.7345 a 4.8024802,4.8024802 0 0 0 0.709,2.467 c 6.007,9.7879 12.896,14.8429 20.093,15.3552 7.198,0.5124 13.256,-3.3689 17.95,-7.9003 9.387,-9.0626 14.992,-22.1796 14.992,-22.1795 a 4.8024802,4.8024802 0 0 0 -2.031,-6.1252 c 0,0 -11.612,-6.7459 -24.174,-8.3163 -1.57,-0.1963 -3.184,-0.3153 -4.807,-0.3147 z m 2440.369,6.4647 c 39.424,0 71.681,12.9924 96.77,38.9769 25.985,25.9845 38.977,59.5853 38.977,100.8021 0,41.2169 -12.992,74.8177 -38.977,100.8022 -25.089,25.9845 -57.346,38.9769 -96.77,38.9769 -38.53,0 -70.786,-12.9924 -96.77,-38.9769 -25.089,-25.9845 -37.633,-59.5853 -37.633,-100.8022 0,-41.2168 12.544,-74.8176 37.633,-100.8021 25.984,-25.9845 58.24,-38.9769 96.77,-38.9769 z m -2440.289,3.1512 c 1.125,0 2.307,0.075 3.532,0.2279 6.678,0.8348 12.521,3.3262 16.408,5.164 -2.09,3.9933 -5.534,10.0585 -10.673,15.0198 -3.665,3.5381 -7.355,5.4593 -10.596,5.2286 -3.067,-0.2184 -7.053,-2.4115 -11.801,-9.6836 0.176,-7.913 2.279,-11.704 4.842,-13.6623 2.041,-1.559 4.912,-2.2866 8.288,-2.2944 z"
         inkscape:export-filename="../Downloads/logo_serotine.svg"
         inkscape:export-xdpi="96"
         inkscape:export-ydpi="96" /><path
         id="path1722"
         style="font-weight:bold;font-size:44.9983px;font-family:Ubuntu;-inkscape-font-specification:Ubuntu;text-align:center;text-orientation:upright;text-anchor:middle;display:inline;fill:#ff0066;fill-opacity:1;fill-rule:evenodd;stroke:none;stroke-width:59.3256;stroke-linecap:round;stroke-linejoin:round;paint-order:markers fill stroke"
         d="m -22612.387,6032.1805 a 413.16904,413.16904 0 0 0 -339.208,177.4843 l 62.941,43.3115 a 336.91089,336.91089 0 0 1 276.267,-144.5379 336.91089,336.91089 0 0 1 275.661,143.2693 l 62.829,-43.2341 a 413.16904,413.16904 0 0 0 -338.49,-176.2931 z m -3239.229,114.3936 c -8.391,0.031 -16.721,0.3278 -25.048,0.6304 119.309,5.8609 242.364,37.3765 354.763,92.8584 24.937,12.31 49.765,25.719 55.173,29.7972 l 9.83,7.4161 -56.56,118.7948 c -31.106,65.3371 -56.923,119.1671 -57.368,119.6211 -0.05,0.047 -2.307,-1.0684 -2.755,-1.2304 0.05,0.154 0.336,1.4133 0.359,1.4671 0.589,1.4004 62.814,-0.2748 70.56,0.5198 l -0.262,-0.5023 c 0.27,0.086 0.625,0.2166 0.66,0.1809 0.445,-0.454 26.262,-54.2832 57.369,-119.6206 l 56.56,-118.7953 -9.83,-7.4156 c -5.408,-4.0786 -30.237,-17.4877 -55.173,-29.7977 -126.122,-62.2558 -265.673,-94.4269 -398.278,-93.9239 z m 3239.229,34.3999 a 264.37555,264.37555 0 0 0 -216.65,113.0267 l 62.005,42.6677 a 189.0284,189.0284 0 0 1 154.645,-80.3476 189.0284,189.0284 0 0 1 153.836,79.2195 l 62.087,-42.7245 a 264.37555,264.37555 0 0 0 -215.923,-111.8418 z m 0,152.8367 a 111.53981,111.53981 0 0 0 -111.54,111.5399 111.53981,111.53981 0 0 0 111.54,111.54 111.53981,111.53981 0 0 0 111.539,-111.54 111.53981,111.53981 0 0 0 -111.539,-111.5399 z m -3333.583,60.1203 c -8.414,0 -17.247,0.6548 -26.042,1.8118 -24.292,3.4359 -48.024,10.6565 -61.218,19.5539 -14.632,9.8677 -29.783,36.6192 -29.743,52.5275 0.08,34.0332 21.795,64.5314 60.727,85.2821 30.85,16.4417 63.517,27.9709 159.356,56.2349 146.496,43.2036 213.114,71.511 271.232,115.2529 120.395,90.6112 152.262,267.1405 73.818,408.9197 -20.292,36.6781 -76.145,91.6756 -118.772,116.9557 -43.647,25.8843 -98.397,46.4631 -155.331,58.9323 -8.669,1.8984 -17.378,3.6544 -26.117,5.1645 0,10e-5 0,-1e-4 0,0 -10.153,1.7926 -20.328,3.3651 -30.491,4.6054 -14.681,1.7924 -38.307,2.9278 -64.261,3.4815 48.187,1.0561 107.143,-0.071 134.943,-3.4654 75.632,-9.2302 152.344,-34.1967 209.821,-68.2827 42.628,-25.2805 98.48,-80.2782 118.772,-116.9562 78.445,-141.7802 46.577,-318.3083 -73.818,-408.9197 -58.119,-43.7421 -124.735,-72.0488 -271.232,-115.2529 -95.839,-28.2643 -128.506,-39.7933 -159.356,-56.2354 -38.932,-20.7507 -60.649,-51.248 -60.727,-85.2811 -0.04,-15.9086 15.111,-42.6603 29.743,-52.528 12.466,-8.4068 34.311,-15.3634 57.17,-19.0128 -13.876,-1.7578 -26.868,-2.7822 -38.473,-2.788 z" /></g></g></svg>
